<?xml version="1.0" encoding="UTF-8" standalone="no"?>
<svg
   xmlns:dc="http://purl.org/dc/elements/1.1/"
   xmlns:cc="http://creativecommons.org/ns#"
   xmlns:rdf="http://www.w3.org/1999/02/22-rdf-syntax-ns#"
   xmlns:svg="http://www.w3.org/2000/svg"
   xmlns="http://www.w3.org/2000/svg"
   xmlns:sodipodi="http://sodipodi.sourceforge.net/DTD/sodipodi-0.dtd"
   xmlns:inkscape="http://www.inkscape.org/namespaces/inkscape"
   width="251.87617"
   height="49.80101"
   viewBox="0 0 251.87618 49.80101"
   version="1.1"
   id="svg8"
   sodipodi:docname="logo.svg"
   inkscape:version="1.0.2-2 (e86c870879, 2021-01-15)">
  <metadata
     id="metadata14">
    <rdf:RDF>
      <cc:Work
         rdf:about="">
        <dc:format>image/svg+xml</dc:format>
        <dc:type
           rdf:resource="http://purl.org/dc/dcmitype/StillImage" />
        <dc:title>logo</dc:title>
      </cc:Work>
    </rdf:RDF>
  </metadata>
  <defs
     id="defs12">
    <rect
       x="279.12653"
       y="-34.684361"
       width="223.52144"
       height="170.66908"
       id="rect928" />
    <rect
       x="376.83698"
       y="-76.301704"
       width="889.14844"
       height="311.43552"
       id="rect878" />
    <rect
       x="520.87592"
       y="97.323601"
       width="687.4939"
       height="129.24574"
       id="rect865" />
    <rect
       x="98.880775"
       y="4.6715326"
       width="499.07541"
       height="50.218983"
       id="rect859" />
    <rect
       x="98.880775"
       y="4.6715326"
       width="499.07541"
       height="50.218983"
       id="rect859-3" />
  </defs>
  <sodipodi:namedview
     pagecolor="#ffffff"
     bordercolor="#666666"
     borderopacity="1"
     objecttolerance="10"
     gridtolerance="10"
     guidetolerance="10"
     inkscape:pageopacity="0"
     inkscape:pageshadow="2"
     inkscape:window-width="1920"
     inkscape:window-height="1001"
     id="namedview10"
     showgrid="false"
     fit-margin-top="0"
     fit-margin-left="0"
     fit-margin-right="0"
     fit-margin-bottom="0"
     inkscape:zoom="2.56875"
     inkscape:cx="87.626408"
     inkscape:cy="75.805745"
     inkscape:window-x="-9"
     inkscape:window-y="-9"
     inkscape:window-maximized="1"
     inkscape:current-layer="svg8" />
  <title
     id="title2">logo</title>
  <text
     xml:space="preserve"
     id="text863"
     style="font-size:40px;line-height:1.25;font-family:Corbert;-inkscape-font-specification:Corbert;white-space:pre;shape-inside:url(#rect865);"
     transform="translate(84.101679,2.0301384)" />
  <text
     xml:space="preserve"
     style="font-size:40px;line-height:1.25;font-family:Corbert;-inkscape-font-specification:Corbert"
     x="34.255318"
     y="30.482315"
     id="text871"><tspan
       sodipodi:role="line"
       id="tspan869"
       x="34.255318"
       y="30.482315"></tspan></text>
  <text
     xml:space="preserve"
     id="text876"
     style="font-size:40px;line-height:1.25;font-family:Corbert;-inkscape-font-specification:Corbert;white-space:pre;shape-inside:url(#rect878);"
     transform="translate(-11.666529,-4.4668356)" />
  <path
     style="fill:#000000;stroke-width:0.148728"
     d="M 15.632584,41.090219 C 5.9457442,36.24799 0.3879252,33.390493 0.2366822,33.174563 0.0274778,32.875878 0,31.920575 0,24.945907 0,17.982022 0.027708,17.015605 0.2359139,16.718352 0.5986068,16.200537 30.333996,1.3725805 31.00971,1.3725805 c 0.770329,0 30.443137,14.8481935 30.818845,15.4216665 0.246014,0.375512 0.26523,0.972848 0.26523,8.244768 v 7.839919 l -0.371819,0.399371 C 61.302173,33.729203 31.5633,48.667967 31.085471,48.667967 c -0.161516,0 -7.115315,-3.409988 -15.452887,-7.577748 z M 29.561382,38.963491 29.522442,33.274656 16.248502,26.618385 2.9745612,19.962116 v 5.726557 5.726558 l 13.1995768,6.610351 c 7.259766,3.635702 13.250568,6.614048 13.312889,6.618547 0.06232,0.0048 0.09579,-2.55178 0.07437,-5.680638 z m 4.500215,5.018061 1.335578,-0.670766 v -5.723543 -5.723544 l -1.412912,0.701858 -1.412912,0.701866 v 5.692451 c 0,3.130848 0.0348,5.692451 0.07733,5.692451 0.04254,0 0.678347,-0.301853 1.412913,-0.670773 z m 5.949106,-2.974553 1.335577,-0.670765 V 34.610357 28.88448 l -1.487276,0.74635 -1.487276,0.746351 v 5.650292 c 0,3.741505 0.05125,5.650292 0.151699,5.650292 0.08343,0 0.752708,-0.301845 1.487276,-0.670766 z m 7.284682,-9.371058 v -5.726014 l -1.487276,0.746351 -1.487275,0.746351 v 5.726013 5.726014 l 1.487275,-0.746351 1.487276,-0.746351 z m 5.949106,-2.974553 v -5.726013 l -1.487276,0.746351 -1.487276,0.74635 v 5.726014 5.726013 l 1.487276,-0.74635 1.487276,-0.746351 z m 5.800378,-2.856679 c 0,-3.130847 -0.0348,-5.692448 -0.07733,-5.692448 -0.04254,0 -0.678347,0.301846 -1.412913,0.670767 l -1.335577,0.670766 v 5.723546 5.723544 l 1.412912,-0.701866 1.412913,-0.701858 z m -26.655677,4.224106 1.230752,-0.628165 -1.656032,-0.814462 c -0.910819,-0.447947 -1.816025,-1.003638 -2.011573,-1.234869 -0.508607,-0.601403 -0.477789,-1.339317 0.0792,-1.8963 0.710327,-0.710334 1.138036,-0.616865 4.206723,0.919271 l 2.704874,1.354026 1.174258,-0.572517 c 0.64584,-0.314884 1.204292,-0.621115 1.241001,-0.680509 0.03671,-0.05943 -0.736314,-0.510564 -1.717832,-1.002579 -1.027933,-0.515288 -1.856623,-1.029197 -1.954493,-1.212069 -0.329906,-0.616432 -0.210226,-1.350804 0.293488,-1.800871 0.744518,-0.665228 1.147565,-0.575041 4.199256,0.939638 l 2.727339,1.353697 1.264964,-0.627363 1.264964,-0.627355 -1.6359,-0.816289 c -0.899747,-0.448959 -1.780825,-0.949476 -1.957953,-1.112257 -0.957248,-0.87971 -0.272212,-2.498674 1.057267,-2.498674 0.207995,0 1.615811,0.617749 3.128486,1.372775 l 2.750316,1.372775 1.303547,-0.646496 1.30355,-0.646497 -1.731297,-0.868068 c -1.760953,-0.882938 -2.358712,-1.39244 -2.358712,-2.010462 0,-0.831979 0.695214,-1.543343 1.517072,-1.552314 0.188113,-0.002 1.596517,0.613889 3.129786,1.368758 l 2.787764,1.372488 1.1907,-0.580533 c 0.654885,-0.319293 1.1907,-0.617632 1.1907,-0.662976 0,-0.04534 -5.873974,-3.018824 -13.053276,-6.607735 L 31.004852,4.4575925 29.750781,5.0881288 28.49671,5.7186634 l 1.746657,0.891473 c 1.869343,0.95409 2.238749,1.31093 2.238749,2.162597 0,0.658213 -0.729372,1.3747766 -1.399349,1.3747766 -0.260619,0 -1.574368,-0.5648046 -3.193117,-1.3727766 l -2.750318,-1.372775 -1.303441,0.646441 -1.303446,0.646444 1.6359,0.816289 c 0.899746,0.448959 1.785462,0.9538306 1.968259,1.1219376 0.472155,0.434209 0.585402,1.198449 0.253221,1.708828 -0.720872,1.107573 -1.071042,1.061181 -4.414437,-0.58486 l -2.787764,-1.372488 -1.1907,0.580532 c -0.654885,0.319294 -1.190701,0.619997 -1.190701,0.668232 0,0.04824 0.679132,0.419668 1.509181,0.825407 1.748524,0.8547 2.357738,1.37745 2.357738,2.023108 0,0.855849 -0.640711,1.605544 -1.377218,1.611478 -0.226153,0.0018 -1.662091,-0.622741 -3.197644,-1.39082 l -2.787155,-1.394127 -1.227004,0.609177 c -0.674851,0.335049 -1.227002,0.646929 -1.227002,0.693068 0,0.04614 0.743692,0.449561 1.652648,0.896495 1.85924,0.914189 2.21427,1.252746 2.21427,2.111542 0,0.467739 -0.09544,0.678695 -0.461911,1.021035 -0.282447,0.263845 -0.624007,0.431491 -0.879116,0.431491 -0.229462,0 -1.680029,-0.627245 -3.223483,-1.39388 l -2.8062808,-1.393881 -1.257872,0.632446 -1.257869,0.632445 13.0861038,6.553626 c 7.197355,3.60449 13.119567,6.553949 13.160467,6.554342 0.0409,4.49e-4 0.628203,-0.281956 1.305116,-0.627451 z"
     id="path855" />
  <g
     aria-label="Chip-Bridge"
     transform="translate(-188.38266,-9.855875)"
     id="text857"
     style="font-size:32px;line-height:1.25;font-family:Corbert;-inkscape-font-specification:Corbert;white-space:pre;shape-inside:url(#rect859)">
    <path
       d="m 273.57109,27.935875 c -1.184,1.216 -2.816,1.856 -4.864,1.856 -4.704,0 -7.424,-3.168 -7.424,-8.128 0,-4.96 2.72,-8.128 7.424,-8.128 2.048,0 3.68,0.64 4.864,1.856 l 2.656,-2.72 c -1.856,-1.6 -4.384,-2.528 -7.52,-2.528 -7.36,0 -11.52,5.024 -11.52,11.52 0,6.496 4.16,11.52 11.52,11.52 3.136,0 5.664,-0.928 7.52,-2.528 z"
       style="font-weight:bold;font-size:32px;text-align:center;text-anchor:middle"
       id="path962" />
    <path
       d="m 283.87507,9.855875 h -3.968 v 23.008 h 3.968 v -10.88 c 1.696,-1.888 2.72,-2.336 4.064,-2.336 1.856,0 3.616,1.088 3.616,3.744 v 9.472 h 3.968 v -10.304 c 0,-4.224 -3.36,-6.112 -6.432,-6.112 -2.144,0 -3.584,0.96 -5.216,2.432 z"
       style="font-weight:bold;font-size:32px;text-align:center;text-anchor:middle"
       id="path964" />
    <path
       d="m 301.63503,10.463875 c -1.184,0 -2.144,0.896 -2.144,1.984 0,1.088 0.96,1.984 2.144,1.984 1.216,0 2.176,-0.896 2.176,-1.984 0,-1.088 -0.96,-1.984 -2.176,-1.984 z m 1.984,22.4 v -16 h -3.968 v 16 z"
       style="font-weight:bold;font-size:32px;text-align:center;text-anchor:middle"
       id="path966" />
    <path
       d="m 311.49103,16.863875 h -3.52 v 23.008 h 3.968 v -8.768 c 1.984,1.664 3.52,2.144 5.312,2.144 4.256,0 7.456,-2.912 7.456,-8.352 0,-5.568 -3.136,-8.384 -7.52,-8.384 -1.984,0 -4.128,0.704 -5.536,2.464 z m 0.448,5.12 c 1.024,-1.76 2.592,-2.336 4.096,-2.336 3.008,0 4.704,1.984 4.704,5.248 0,3.328 -1.504,5.216 -4.512,5.216 -1.536,0 -2.688,-0.512 -4.288,-2.304 z"
       style="font-weight:bold;font-size:32px;text-align:center;text-anchor:middle"
       id="path968" />
    <path
       d="m 340.48299,23.167875 v -3.232 h -13.248 v 3.232 z"
       style="font-weight:bold;font-size:32px;text-align:center;text-anchor:middle"
       id="path970" />
    <path
       d="m 344.22694,10.463875 v 22.4 h 11.04 c 4.416,0 6.944,-2.656 6.944,-6.272 0,-2.528 -1.248,-4.544 -3.488,-5.472 1.696,-0.96 2.656,-2.656 2.656,-4.8 0,-3.328 -2.464,-5.856 -6.656,-5.856 z m 4.064,3.264 h 5.984 c 1.92,0 3.008,1.184 3.008,3.008 0,1.76 -0.992,2.912 -2.784,2.976 h -6.208 z m 0,15.872 v -6.56 h 6.24 c 2.08,0 3.296,1.28 3.296,3.264 0,2.016 -1.184,3.296 -3.296,3.296 z"
       style="font-weight:bold;font-size:32px;text-align:center;text-anchor:middle"
       id="path972" />
    <path
       d="m 374.72292,16.479875 h -0.16 c -2.112,0.032 -3.84,1.12 -5.12,2.784 l -0.192,-2.4 h -3.488 v 16 h 3.936 v -10.752 c 1.312,-1.92 2.944,-2.464 4.256,-2.464 h 0.768 z"
       style="font-weight:bold;font-size:32px;text-align:center;text-anchor:middle"
       id="path974" />
    <path
       d="m 379.6509,10.463875 c -1.184,0 -2.144,0.896 -2.144,1.984 0,1.088 0.96,1.984 2.144,1.984 1.216,0 2.176,-0.896 2.176,-1.984 0,-1.088 -0.96,-1.984 -2.176,-1.984 z m 1.984,22.4 v -16 h -3.968 v 16 z"
       style="font-weight:bold;font-size:32px;text-align:center;text-anchor:middle"
       id="path976" />
    <path
       d="m 401.8269,32.863875 v -23.008 h -3.968 v 8.8 c -1.984,-1.664 -3.52,-2.176 -5.28,-2.176 -4.288,0 -7.456,2.944 -7.456,8.384 0,5.568 3.296,8.352 7.488,8.352 1.984,0 4.16,-0.672 5.536,-2.432 l 0.192,2.08 z m -3.968,-5.088 c -1.024,1.76 -2.56,2.336 -4.064,2.336 -3.04,0 -4.704,-1.984 -4.704,-5.248 0,-3.36 1.504,-5.216 4.48,-5.216 1.568,0 2.688,0.512 4.288,2.304 z"
       style="font-weight:bold;font-size:32px;text-align:center;text-anchor:middle"
       id="path978" />
    <path
       d="m 411.07485,30.719875 c -1.088,-0.096 -1.632,-0.64 -1.632,-1.28 0,-0.512 0.352,-1.088 1.12,-1.504 0.704,0.256 1.536,0.384 2.432,0.384 4.32,0 7.232,-1.824 7.232,-6.08 0,-1.216 -0.448,-2.176 -1.216,-2.816 l 2.848,-0.224 v -2.336 h -5.024 c -1.088,-0.48 -2.4,-0.704 -3.84,-0.704 -4.16,0 -7.2,1.984 -7.2,6.08 0,2.112 0.736,3.616 1.952,4.608 -1.216,0.8 -1.824,1.856 -1.824,2.816 0,0.192 0,0.352 0.064,0.512 0.128,0.672 0.704,1.248 1.568,1.568 -1.568,0.704 -2.656,1.92 -2.656,4.128 0,4.288 4.768,5.216 8.704,5.216 3.872,0 8.352,-1.056 8.352,-5.216 0,-4.736 -4.928,-5.184 -8.544,-5.152 z m 1.92,-11.52 c 2.272,0 3.616,0.928 3.616,3.04 0,2.08 -1.28,3.04 -3.616,3.04 -2.304,0 -3.584,-0.928 -3.584,-3.04 0,-2.112 1.344,-3.04 3.584,-3.04 z m 0,14.432 c 3.232,0 4.96,0.224 4.96,2.24 0,1.728 -1.92,2.272 -4.768,2.272 -2.624,0 -4.384,-0.64 -4.384,-2.272 0,-1.856 1.472,-2.24 4.192,-2.24 z"
       style="font-weight:bold;font-size:32px;text-align:center;text-anchor:middle"
       id="path980" />
    <path
       d="m 437.31484,28.959875 c -1.536,0.896 -3.392,1.376 -5.056,1.28 -2.528,-0.064 -4.256,-1.568 -4.64,-4.064 h 12.48 c 0.096,-0.64 0.16,-1.312 0.16,-1.856 0,-4.704 -2.816,-7.84 -8.096,-7.84 -5.568,0 -8.48,3.776 -8.48,8.384 0,4.672 3.008,8.352 8.576,8.352 2.816,0 5.12,-0.832 6.752,-2.304 z m -9.696,-5.056 0.032,-0.192 c 0.16,-2.4 1.696,-4.256 4.608,-4.256 2.528,0 4.096,1.024 4.32,3.392 0,0.16 0.032,0.384 0.032,0.608 0,0.16 0,0.288 -0.032,0.448 z"
       style="font-weight:bold;font-size:32px;text-align:center;text-anchor:middle"
       id="path982" />
  </g>
  <g
     aria-label="TECHNOLOGIES"
     transform="translate(-24.012316,25.971833)"
     id="text857-2"
     style="font-size:21.3333px;line-height:1.25;font-family:Corbert;-inkscape-font-specification:Corbert;white-space:pre;shape-inside:url(#rect859-3)">
    <path
       d="m 112.17151,9.6212005 h -5.54666 V 23.466512 h -1.30133 V 9.6212005 H 99.776858 V 8.5332022 h 12.394652 z"
       style="font-size:21.3333px"
       id="path985" />
    <path
       d="m 116.65148,9.6212005 v 5.6106575 h 7.38132 v 1.087999 h -7.38132 v 6.058657 h 8.04265 v 1.087998 h -9.32265 V 8.5332022 h 9.32265 v 1.0879983 z"
       style="font-size:21.3333px"
       id="path987" />
    <path
       d="m 134.8701,8.1705361 q 2.53866,0 4.35199,1.2586647 l -0.81066,0.8746652 q -1.42933,-1.0453316 -3.54133,-1.0453316 -1.92,0 -3.32799,0.8533316 -1.38667,0.831999 -2.13333,2.346663 -0.72534,1.514665 -0.72534,3.519995 0,2.026663 0.72534,3.541328 0.74666,1.514664 2.13333,2.367996 1.40799,0.831998 3.32799,0.831998 2.13333,0 3.54133,-1.023998 l 0.81066,0.874665 q -1.81333,1.258665 -4.35199,1.258665 -2.32533,0 -4.01066,-1.002665 -1.68533,-1.002665 -2.58133,-2.773329 -0.87466,-1.770664 -0.87466,-4.07466 0,-2.282663 0.87466,-4.031994 0.896,-1.770664 2.58133,-2.7733288 1.68533,-1.0026651 4.01066,-1.0026651 z"
       style="font-size:21.3333px"
       id="path989" />
    <path
       d="M 154.60338,8.5332022 V 23.466512 h -1.30133 v -6.911989 h -9.47198 v 6.911989 h -1.28 V 8.5332022 h 1.28 v 6.9119888 h 9.47198 V 8.5332022 Z"
       style="font-size:21.3333px"
       id="path991" />
    <path
       d="M 170.92333,8.5332022 V 23.466512 H 169.366 l -8.89599,-13.055979 v 13.055979 h -1.28 V 8.5332022 h 1.536 L 169.622,21.589182 V 8.5332022 Z"
       style="font-size:21.3333px"
       id="path993" />
    <path
       d="m 182.20862,8.1918694 q 2.32533,0 4.032,1.0026651 1.70666,1.0026655 2.60266,2.7733285 0.896,1.749331 0.896,4.010661 0,2.303996 -0.896,4.07466 -0.87467,1.770664 -2.58133,2.773329 -1.68533,0.981332 -4.05333,0.981332 -2.28266,0 -3.98933,-0.981332 -1.68533,-1.002665 -2.60266,-2.773329 -0.896,-1.791997 -0.896,-4.07466 0,-2.26133 0.87467,-4.010661 0.896,-1.770663 2.58133,-2.7733285 1.70666,-1.0026651 4.03199,-1.0026651 z m 0,1.1093316 q -1.92,0 -3.32799,0.831999 -1.408,0.831998 -2.15467,2.346663 -0.72533,1.514664 -0.72533,3.498661 0,2.026663 0.74667,3.541328 0.768,1.514664 2.15466,2.346663 1.408,0.810665 3.30666,0.810665 1.96267,0 3.37066,-0.810665 1.408,-0.831999 2.13333,-2.346663 0.74667,-1.514665 0.74667,-3.541328 0,-1.983997 -0.74667,-3.498661 -0.74666,-1.514665 -2.15466,-2.346663 -1.408,-0.831999 -3.34933,-0.831999 z"
       style="font-size:21.3333px"
       id="path995" />
    <path
       d="m 202.56056,22.42118 v 1.045332 h -9.04532 V 8.5332022 h 1.28 V 22.42118 Z"
       style="font-size:21.3333px"
       id="path997" />
    <path
       d="m 211.1792,8.1918694 q 2.32532,0 4.03199,1.0026651 1.70666,1.0026655 2.60266,2.7733285 0.896,1.749331 0.896,4.010661 0,2.303996 -0.896,4.07466 -0.87466,1.770664 -2.58133,2.773329 -1.68533,0.981332 -4.05332,0.981332 -2.28267,0 -3.98933,-0.981332 -1.68533,-1.002665 -2.60266,-2.773329 -0.896,-1.791997 -0.896,-4.07466 0,-2.26133 0.87466,-4.010661 0.896,-1.770663 2.58133,-2.7733285 1.70667,-1.0026651 4.032,-1.0026651 z m 0,1.1093316 q -1.92,0 -3.328,0.831999 -1.408,0.831998 -2.15466,2.346663 -0.72534,1.514664 -0.72534,3.498661 0,2.026663 0.74667,3.541328 0.768,1.514664 2.15466,2.346663 1.408,0.810665 3.30667,0.810665 1.96266,0 3.37066,-0.810665 1.40799,-0.831999 2.13333,-2.346663 0.74666,-1.514665 0.74666,-3.541328 0,-1.983997 -0.74666,-3.498661 -0.74667,-1.514665 -2.15467,-2.346663 -1.40799,-0.831999 -3.34932,-0.831999 z"
       style="font-size:21.3333px"
       id="path999" />
    <path
       d="m 235.13649,15.445191 v 5.695991 q -0.96,1.258665 -2.496,1.962664 -1.51466,0.703999 -3.47733,0.703999 -2.28266,0 -3.98932,-0.981332 -1.68533,-1.002665 -2.58133,-2.773329 -0.896,-1.791997 -0.896,-4.07466 0,-2.26133 0.87466,-4.031994 0.896,-1.770664 2.58133,-2.7519955 1.68533,-1.0026651 4.01066,-1.0026651 1.792,0 3.22133,0.5973324 1.42933,0.5759991 2.41067,1.6639972 l -0.81067,0.767999 q -0.896,-0.938665 -2.112,-1.4293311 -1.21599,-0.4906659 -2.70933,-0.4906659 -1.89866,0 -3.30666,0.831999 -1.38666,0.831998 -2.13333,2.346663 -0.74666,1.493331 -0.74666,3.498661 0,2.026663 0.74666,3.541328 0.74667,1.514664 2.13333,2.346663 1.408,0.831998 3.30666,0.831998 3.072,0 4.71466,-1.919997 v -4.287993 h -4.71466 v -1.045332 z"
       style="font-size:21.3333px"
       id="path1001" />
    <path
       d="M 239.04048,23.466512 V 8.5332022 h 1.28 V 23.466512 Z"
       style="font-size:21.3333px"
       id="path1003" />
    <path
       d="m 246.20845,9.6212005 v 5.6106575 h 7.38132 v 1.087999 h -7.38132 v 6.058657 h 8.04265 v 1.087998 h -9.32265 V 8.5332022 h 9.32265 v 1.0879983 z"
       style="font-size:21.3333px"
       id="path1005" />
    <path
       d="m 263.16839,8.1705361 q 1.472,0 2.79466,0.3199995 1.32267,0.3199995 2.32533,0.9386652 l -0.74666,0.9173322 q -0.87467,-0.5333328 -2.048,-0.7893324 -1.152,-0.2773329 -2.43199,-0.2773329 -1.94133,0 -3.28533,0.7893323 -1.344,0.767999 -1.344,2.218663 0,0.959998 0.59733,1.557331 0.59733,0.575999 1.472,0.874665 0.87467,0.277333 2.13333,0.490666 1.96266,0.341333 3.264,0.789332 1.32266,0.426666 2.17599,1.301331 0.85333,0.853332 0.85333,2.303997 0,1.429331 -0.87466,2.389329 -0.87467,0.938665 -2.26133,1.386665 -1.38667,0.447999 -3.008,0.447999 -1.83466,0 -3.54132,-0.554666 -1.70667,-0.554666 -2.64533,-1.493331 l 0.768,-0.874665 q 0.83199,0.853332 2.32532,1.343998 1.51467,0.469332 3.15733,0.469332 2.048,0 3.456,-0.767998 1.408,-0.767999 1.408,-2.32533 0,-1.023998 -0.704,-1.642664 -0.704,-0.639999 -1.83467,-0.981332 -1.13066,-0.362666 -2.92266,-0.661332 -1.51466,-0.277333 -2.58133,-0.661332 -1.04533,-0.405333 -1.74933,-1.194665 -0.704,-0.789332 -0.704,-2.090664 0,-1.386664 0.832,-2.325329 0.85333,-0.9599987 2.19733,-1.4293313 1.36533,-0.4693326 2.92266,-0.4693326 z"
       style="font-size:21.3333px"
       id="path1007" />
  </g>
  <text
     xml:space="preserve"
     id="text926"
     style="font-size:40px;line-height:1.25;font-family:Corbert;-inkscape-font-specification:Corbert;white-space:pre;shape-inside:url(#rect928);"
     transform="translate(-7.6665288,-4.4668356)" />
</svg>
