<?xml version="1.0" encoding="UTF-8" standalone="no"?>
<svg
   xmlns:dc="http://purl.org/dc/elements/1.1/"
   xmlns:cc="http://creativecommons.org/ns#"
   xmlns:rdf="http://www.w3.org/1999/02/22-rdf-syntax-ns#"
   xmlns:svg="http://www.w3.org/2000/svg"
   xmlns="http://www.w3.org/2000/svg"
   xmlns:sodipodi="http://sodipodi.sourceforge.net/DTD/sodipodi-0.dtd"
   xmlns:inkscape="http://www.inkscape.org/namespaces/inkscape"
   width="54px"
   height="54px"
   viewBox="0 0 54 54"
   version="1.1"
   id="svg9"
   sodipodi:docname="logo-mobile.svg"
   inkscape:version="1.0.2-2 (e86c870879, 2021-01-15)">
  <metadata
     id="metadata15">
    <rdf:RDF>
      <cc:Work
         rdf:about="">
        <dc:format>image/svg+xml</dc:format>
        <dc:type
           rdf:resource="http://purl.org/dc/dcmitype/StillImage" />
      </cc:Work>
    </rdf:RDF>
  </metadata>
  <defs
     id="defs13" />
  <sodipodi:namedview
     pagecolor="#ffffff"
     bordercolor="#666666"
     borderopacity="1"
     objecttolerance="10"
     gridtolerance="10"
     guidetolerance="10"
     inkscape:pageopacity="0"
     inkscape:pageshadow="2"
     inkscape:window-width="1920"
     inkscape:window-height="1001"
     id="namedview11"
     showgrid="false"
     inkscape:zoom="11.104195"
     inkscape:cx="29.570073"
     inkscape:cy="33.819312"
     inkscape:window-x="-9"
     inkscape:window-y="-9"
     inkscape:window-maximized="1"
     inkscape:current-layer="svg9" />
  <title
     id="title2">logo-mobile</title>
  <path
     style="fill:#000000;stroke-width:0.125432"
     d="M 14.125859,40.497334 C 5.9563152,36.413567 1.2690447,34.003654 1.1414915,33.821546 0.96505624,33.569645 0.94188224,32.763976 0.94188224,26.881785 c 0,-5.873098 0.02337,-6.68814 0.19896166,-6.938833 C 1.4467264,19.506245 26.524517,7.0008645 27.09439,7.0008645 c 0.649669,0 25.67468,12.5224475 25.991538,13.0060945 0.20748,0.316694 0.223686,0.820466 0.223686,6.95335 v 6.611914 l -0.313579,0.336815 c -0.354039,0.380272 -25.434766,12.979104 -25.83775,12.979104 -0.136218,0 -6.000809,-2.875864 -13.032426,-6.390808 z M 25.872921,38.703725 25.84008,33.905961 14.645302,28.292294 3.4505232,22.678629 v 4.829578 4.82958 l 11.1320628,5.574939 c 6.122633,3.066224 11.175067,5.578058 11.227626,5.581851 0.05256,0.0041 0.08078,-2.152081 0.06272,-4.790852 z m 3.795324,4.232058 1.12638,-0.5657 v -4.827037 -4.827037 l -1.1916,0.591923 -1.191601,0.591929 v 4.800814 c 0,2.640448 0.02935,4.800814 0.06522,4.800814 0.03587,0 0.572094,-0.254571 1.191602,-0.565706 z m 5.017268,-2.508634 1.126379,-0.5657 v -4.829004 -4.829006 l -1.254316,0.629446 -1.254317,0.629446 v 4.76526 c 0,3.155454 0.04322,4.765258 0.127938,4.765258 0.07037,0 0.634808,-0.254565 1.254316,-0.5657 z m 6.143647,-7.903224 v -4.82912 l -1.254317,0.629447 -1.254316,0.629446 v 4.82912 4.82912 l 1.254316,-0.629446 1.254317,-0.629447 z m 5.017268,-2.508633 v -4.82912 l -1.254316,0.629447 -1.254317,0.629445 v 4.82912 4.82912 l 1.254317,-0.629446 1.254316,-0.629447 z m 4.891837,-2.409224 c 0,-2.640447 -0.02935,-4.800812 -0.06522,-4.800812 -0.03587,0 -0.572093,0.254567 -1.191601,0.565701 l -1.126379,0.565701 v 4.82704 4.827036 l 1.191601,-0.591929 1.191601,-0.591922 z m -22.480468,3.562464 1.037974,-0.529773 -1.396641,-0.686888 c -0.768152,-0.377783 -1.531571,-0.846434 -1.69649,-1.041446 -0.428942,-0.507202 -0.402951,-1.129534 0.0668,-1.599273 0.599065,-0.599071 0.959779,-0.520242 3.547804,0.775281 l 2.281196,1.141938 0.990327,-0.482841 c 0.54468,-0.265562 1.015658,-0.523826 1.046618,-0.573918 0.03096,-0.05012 -0.620982,-0.430591 -1.44876,-0.845539 -0.866923,-0.434576 -1.56581,-0.86799 -1.648351,-1.022218 -0.278231,-0.519876 -0.177297,-1.13922 0.247518,-1.51879 0.6279,-0.561031 0.967816,-0.48497 3.541505,0.792457 l 2.300143,1.141661 1.066827,-0.529096 1.066826,-0.52909 -1.379661,-0.688429 c -0.758815,-0.378636 -1.501886,-0.800755 -1.651269,-0.938039 -0.807309,-0.741917 -0.229575,-2.107294 0.891662,-2.107294 0.175416,0 1.362718,0.520988 2.638456,1.15775 l 2.31952,1.157751 1.099367,-0.545232 1.099369,-0.545234 -1.460117,-0.732098 c -1.485126,-0.744639 -1.989255,-1.174335 -1.989255,-1.695553 0,-0.701662 0.586319,-1.301601 1.279446,-1.309168 0.158648,-0.0017 1.346446,0.517733 2.639552,1.154363 l 2.351102,1.157508 1.004196,-0.489601 c 0.552307,-0.269281 1.004194,-0.520889 1.004194,-0.55913 0,-0.03824 -4.953904,-2.545971 -11.008677,-5.572734 l -11.00868,-5.503201 -1.057639,0.531772 -1.05764,0.53177 1.473069,0.751837 c 1.576539,0.804646 1.888083,1.105592 1.888083,1.823859 0,0.555113 -0.615127,1.159439 -1.180162,1.159439 -0.219797,0 -1.327767,-0.476337 -2.692963,-1.157752 l -2.319526,-1.157751 -1.099276,0.545186 -1.099281,0.545188 1.379661,0.68843 c 0.758814,0.378637 1.505796,0.804427 1.659961,0.946204 0.398199,0.366196 0.493708,1.010729 0.213558,1.441165 -0.607958,0.934089 -0.90328,0.894963 -3.722983,-0.49325 l -2.351103,-1.157509 -1.004194,0.4896 c -0.552308,0.269282 -1.004196,0.522884 -1.004196,0.563564 0,0.04069 0.572756,0.353933 1.27279,0.69612 1.474645,0.720823 1.988435,1.161692 1.988435,1.706218 0,0.721794 -0.540354,1.35406 -1.161498,1.359064 -0.19073,0.0015 -1.40175,-0.525197 -2.696781,-1.172968 l -2.350589,-1.175759 -1.034813,0.51376 c -0.569146,0.282568 -1.034811,0.545596 -1.034811,0.584508 0,0.03891 0.627204,0.379144 1.393786,0.756073 1.568018,0.770995 1.867438,1.056522 1.867438,1.780801 0,0.394475 -0.08049,0.572388 -0.38956,0.861105 -0.238205,0.222518 -0.526266,0.363905 -0.741416,0.363905 -0.193519,0 -1.416877,-0.528997 -2.7185723,-1.17555 l -2.3667224,-1.17555 -1.0608454,0.533382 -1.0608428,0.533382 11.0363639,5.527099 c 6.069998,3.039902 11.064585,5.527372 11.099079,5.527704 0.03449,3.78e-4 0.529805,-0.237792 1.100689,-0.52917 z"
     id="path855" />
</svg>
