<?xml version="1.0" encoding="UTF-8" standalone="no"?>
<svg
   xmlns:dc="http://purl.org/dc/elements/1.1/"
   xmlns:cc="http://creativecommons.org/ns#"
   xmlns:rdf="http://www.w3.org/1999/02/22-rdf-syntax-ns#"
   xmlns:svg="http://www.w3.org/2000/svg"
   xmlns="http://www.w3.org/2000/svg"
   xmlns:sodipodi="http://sodipodi.sourceforge.net/DTD/sodipodi-0.dtd"
   xmlns:inkscape="http://www.inkscape.org/namespaces/inkscape"
   width="32px"
   height="32px"
   viewBox=s0 0 32 32"
   version="1.1"
   id="svg8"
   sodipodi:docname="favicon-32x32.svg"
   inkscape:version="1.0.2-2 (e86c870879, 2021-01-15)">
  <metadata
     id="metadata14">
    <rdf:RDF>
      <cc:Work
         rdf:about="">
        <dc:format>image/svg+xml</dc:format>
        <dc:type
           rdf:resource="http://purl.org/dc/dcmitype/StillImage" />
      </cc:Work>
    </rdf:RDF>
  </metadata>
  <defs
     id="defs12">
    <rect
       x="279.12653"
       y="-34.684361"
       width="223.52144"
       height="170.66908"
       id="rect928" />
    <rect
       x="376.83698"
       y="-76.301704"
       width="889.14844"
       height="311.43552"
       id="rect878" />
    <rect
       x="520.87592"
       y="97.323601"
       width="687.4939"
       height="129.24574"
       id="rect865" />
    <rect
       x="98.880775"
       y="4.6715326"
       width="499.07541"
       height="50.218983"
       id="rect859" />
    <rect
       x="98.880775"
       y="4.6715326"
       width="499.07541"
       height="50.218983"
       id="rect859-3" />
  </defs>
  <sodipodi:namedview
     pagecolor="#ffffff"
     bordercolor="#666666"
     borderopacity="1"
     objecttolerance="10"
     gridtolerance="10"
     guidetolerance="10"
     inkscape:pageopacity="0"
     inkscape:pageshadow="2"
     inkscape:window-width="1920"
     inkscape:window-height="1001"
     id="namedview10"
     showgrid="false"
     inkscape:zoom="6.625"
     inkscape:cx="12.047379"
     inkscape:cy="23.678417"
     inkscape:window-x="-9"
     inkscape:window-y="-9"
     inkscape:window-maximized="1"
     inkscape:current-layer="g916" />
  <title
     id="title2">Group</title>
  <g
     id="g916"
     transform="translate(-34.013562,5.2881737)">
    <path
       style="fill:#000000;stroke-width:0.0757182"
       d="m 42.166065,18.893111 c -4.931616,-2.465201 -7.761128,-3.919966 -7.838127,-4.029898 -0.106506,-0.152062 -0.120495,-0.638411 -0.120495,-4.189247 0,-3.5453466 0.01411,-4.0373548 0.120105,-4.1886872 0.184648,-0.2636221 15.323075,-7.8126051 15.667084,-7.8126051 0.392178,0 15.498744,7.5592851 15.690019,7.8512429 0.125247,0.1911753 0.13503,0.4952823 0.13503,4.1974514 v 3.991339 l -0.189294,0.203322 c -0.213719,0.229555 -15.35392,7.83495 -15.597185,7.83495 -0.08223,0 -3.62244,-1.736042 -7.867137,-3.857868 z m 7.091217,-1.082727 -0.01982,-2.896213 -6.757826,-3.388739 -6.757826,-3.3887383 v 2.9154183 2.915417 l 6.719967,3.365361 c 3.695981,1.850954 6.745926,3.367243 6.777654,3.369533 0.03172,0.0025 0.04877,-1.299123 0.03786,-2.892039 z m 2.29108,2.554719 0.679949,-0.34149 v -2.913884 -2.913883 l -0.71932,0.35732 -0.71932,0.357323 v 2.898054 c 0,1.593929 0.01771,2.898053 0.03937,2.898053 0.02166,0 0.345349,-0.153674 0.719321,-0.341493 z m 3.028718,-1.514359 0.679948,-0.34149 v -2.915071 -2.915071 l -0.757178,0.37997 -0.75718,0.379971 v 2.87659 c 0,1.904819 0.02609,2.87659 0.07723,2.87659 0.04247,0 0.383207,-0.15367 0.75718,-0.341489 z m 3.708666,-4.77085 v -2.915141 l -0.757179,0.379971 -0.757179,0.379971 v 2.91514 2.915141 l 0.757179,-0.379971 0.757179,-0.379971 z m 3.028718,-1.514359 V 9.6503946 l -0.75718,0.3799704 -0.757178,0.379971 v 2.91514 2.91514 l 0.757178,-0.379969 0.75718,-0.379971 z m 2.953,-1.454349 c 0,-1.5939288 -0.01771,-2.8980525 -0.03937,-2.8980525 -0.02165,0 -0.34535,0.153671 -0.719321,0.341491 l -0.679948,0.34149 v 2.9138845 2.913883 l 0.71932,-0.357323 0.71932,-0.357319 z m -13.570531,2.150513 0.626582,-0.319802 -0.843094,-0.414647 c -0.463702,-0.228052 -0.924547,-0.510957 -1.024101,-0.628678 -0.258935,-0.306177 -0.243245,-0.681852 0.04032,-0.965415 0.36163,-0.361634 0.57938,-0.314048 2.141662,0.468006 l 1.377064,0.68934 0.59782,-0.29147 c 0.328801,-0.160309 0.613111,-0.316213 0.6318,-0.346451 0.01869,-0.03025 -0.374861,-0.25993 -0.874556,-0.510418 -0.523326,-0.262336 -0.945216,-0.523969 -0.995041,-0.617069 -0.167958,-0.31383 -0.107027,-0.6877017 0.149416,-0.9168327 0.379037,-0.3386706 0.58423,-0.2927558 2.137861,0.4783735 l 1.388501,0.6891752 0.643999,-0.319395 0.643998,-0.3193895 -0.832844,-0.415576 C 56.048256,9.2928836 55.599695,9.0380673 55.509518,8.9551951 55.022179,8.5073304 55.370934,7.6831079 56.047778,7.6831079 c 0.105889,0 0.822617,0.3144989 1.592727,0.6988861 l 1.400199,0.6988872 0.663641,-0.3291351 0.663644,-0.329134 -0.881412,-0.4419379 C 58.590068,7.531167 58.285746,7.2717762 58.285746,6.9571387 c 0,-0.4235643 0.353937,-0.7857233 0.772348,-0.7902902 0.09577,-0.00102 0.812795,0.3125338 1.593389,0.6968409 l 1.419264,0.6987399 0.606191,-0.2955513 c 0.333405,-0.1625537 0.606191,-0.3144394 0.606191,-0.3375251 0,-0.023084 -2.990468,-1.536897 -6.645484,-3.3640292 l -6.645486,-3.32205562 -0.638453,0.3210093 -0.638454,0.3210082 0.889231,0.45385212 c 0.951691,0.4857317 1.139758,0.6674007 1.139758,1.1009888 0,0.3350997 -0.371326,0.6999049 -0.712415,0.6999049 -0.132682,0 -0.801519,-0.2875447 -1.625631,-0.6988872 l -1.400199,-0.6988861 -0.663589,0.3291069 -0.66359,0.329107 0.832844,0.415577 c 0.458065,0.2285669 0.908987,0.4855995 1.00205,0.571184 0.240376,0.2210572 0.298031,0.6101358 0.128916,0.8699716 -0.366999,0.5638713 -0.545273,0.5402529 -2.247411,-0.2977547 l -1.419263,-0.69874 -0.606191,0.2955514 c -0.333406,0.1625548 -0.606192,0.3156434 -0.606192,0.3402005 0,0.024556 0.345749,0.2136546 0.768332,0.4202186 0.890181,0.435132 1.200335,0.7012659 1.200335,1.0299733 0,0.4357177 -0.326189,0.8173906 -0.701149,0.8204114 -0.115135,9.17e-4 -0.846178,-0.3170401 -1.627935,-0.708073 L 40.9842,4.7492355 40.359525,5.05937 c -0.343569,0.1705755 -0.624672,0.3293549 -0.624672,0.3528444 0,0.023495 0.378617,0.2288733 0.841371,0.4564106 0.946548,0.4654177 1.127295,0.6377787 1.127295,1.0749959 0,0.2381274 -0.04859,0.3455264 -0.235161,0.5198135 -0.143794,0.134324 -0.317684,0.2196735 -0.447561,0.2196735 -0.116821,0 -0.855312,-0.3193333 -1.641091,-0.709631 l -1.428691,-0.709631 -0.640389,0.3219815 -0.640387,0.3219805 6.662198,3.3364811 c 3.664207,1.835065 6.679232,3.336648 6.700055,3.336848 0.02082,2.28e-4 0.319822,-0.143545 0.664441,-0.319438 z"
       id="path855" />
  </g>
</svg>
