<?xml version="1.0" encoding="UTF-8" standalone="no"?>
<svg
   xmlns:dc="http://purl.org/dc/elements/1.1/"
   xmlns:cc="http://creativecommons.org/ns#"
   xmlns:rdf="http://www.w3.org/1999/02/22-rdf-syntax-ns#"
   xmlns:svg="http://www.w3.org/2000/svg"
   xmlns="http://www.w3.org/2000/svg"
   xmlns:sodipodi="http://sodipodi.sourceforge.net/DTD/sodipodi-0.dtd"
   xmlns:inkscape="http://www.inkscape.org/namespaces/inkscape"
   width="32px"
   height="32px"
   version="1.1"
   id="svg2"
   sodipodi:docname="favicon-32x32.svg"
   inkscape:version="1.0.2-2 (e86c870879, 2021-01-15)">
  <metadata
     id="metadata8">
    <rdf:RDF>
      <cc:Work
         rdf:about="">
        <dc:format>image/svg+xml</dc:format>
        <dc:type
           rdf:resource="http://purl.org/dc/dcmitype/StillImage" />
      </cc:Work>
    </rdf:RDF>
  </metadata>
  <defs
     id="defs6" />
  <sodipodi:namedview
     pagecolor="#ffffff"
     bordercolor="#666666"
     borderopacity="1"
     objecttolerance="10"
     gridtolerance="10"
     guidetolerance="10"
     inkscape:pageopacity="0"
     inkscape:pageshadow="2"
     inkscape:window-width="1920"
     inkscape:window-height="1001"
     id="namedview4"
     showgrid="false"
     inkscape:zoom="4.6845824"
     inkscape:cx="20.557763"
     inkscape:cy="23.646069"
     inkscape:window-x="-9"
     inkscape:window-y="-9"
     inkscape:window-maximized="1"
     inkscape:current-layer="svg2" />
  <path
     style="fill:#000000;stroke-width:0.0744148"
     d="M 8.2875814,24.040461 C 3.4408521,21.617693 0.66004467,20.187969 0.58437155,20.07993 0.47969771,19.930485 0.46594932,19.452507 0.46594932,15.962791 c 0,-3.484321 0.0138647,-3.967859 0.11803779,-4.116587 C 0.76545713,11.587119 15.643309,4.1680765 15.981396,4.1680765 c 0.385428,0 15.231967,7.4291685 15.419949,7.7161005 0.123091,0.187884 0.132706,0.486756 0.132706,4.1252 v 3.922637 l -0.186037,0.199822 c -0.21004,0.225603 -15.089633,7.700087 -15.328711,7.700087 -0.08081,0 -3.560088,-1.706158 -7.7317216,-3.791462 z M 15.256738,22.976371 15.237254,20.13001 8.5957503,16.799601 1.9542458,13.469193 v 2.865235 2.865235 l 6.6042972,3.307433 c 3.632362,1.819093 6.62981,3.309284 6.660992,3.311534 0.03118,0.0024 0.04792,-1.276761 0.03721,-2.842259 z m 2.251644,2.510744 0.668245,-0.335611 V 22.287777 19.42405 l -0.706938,0.351169 -0.706939,0.351173 v 2.848169 c 0,1.566493 0.01741,2.84817 0.03869,2.84817 0.02128,0 0.339405,-0.151029 0.70694,-0.335616 z m 2.976585,-1.488292 0.668245,-0.335612 v -2.864894 -2.864894 l -0.744146,0.37343 -0.744146,0.37343 v 2.827076 c 0,1.87203 0.02564,2.827076 0.0759,2.827076 0.04175,0 0.376612,-0.151026 0.744146,-0.335612 z m 3.644829,-4.68873 V 16.44513 l -0.744146,0.373431 -0.744145,0.37343 v 2.864963 2.864962 l 0.744145,-0.37343 0.744146,-0.373431 z m 2.976585,-1.488292 v -2.864963 l -0.744146,0.373431 -0.744146,0.37343 v 2.864962 2.864963 l 0.744146,-0.37343 0.744146,-0.373431 z m 2.902171,-1.429316 c 0,-1.566492 -0.01741,-2.848168 -0.03869,-2.848168 -0.02128,0 -0.339405,0.151027 -0.706939,0.335612 l -0.668245,0.335613 v 2.863728 2.863726 l 0.706939,-0.351172 0.706939,-0.351169 z m -13.336944,2.113496 0.615797,-0.314297 -0.828582,-0.407509 c -0.45572,-0.224126 -0.908632,-0.502162 -1.006473,-0.617856 -0.254478,-0.300907 -0.239058,-0.670117 0.03963,-0.948798 0.355406,-0.35541 0.569406,-0.308643 2.104799,0.45995 l 1.35336,0.677475 0.58753,-0.286454 c 0.323141,-0.15755 0.602557,-0.310769 0.620925,-0.340487 0.01837,-0.02973 -0.368409,-0.255456 -0.859503,-0.501632 -0.514318,-0.25782 -0.928945,-0.51495 -0.977914,-0.606449 -0.165066,-0.308426 -0.105185,-0.675863 0.146844,-0.90105 0.372513,-0.332841 0.574174,-0.287717 2.101062,0.47014 l 1.364601,0.677311 0.632914,-0.313896 0.632914,-0.313892 -0.818509,-0.408423 c -0.45018,-0.224633 -0.89102,-0.475062 -0.979645,-0.556509 -0.47895,-0.440155 -0.136199,-1.25019 0.528995,-1.25019 0.104069,0 0.808457,0.309086 1.565312,0.686856 l 1.376097,0.686857 0.652219,-0.323469 0.65222,-0.32347 -0.86624,-0.43433 c -0.881078,-0.44177 -1.180162,-0.696695 -1.180162,-1.005917 0,-0.416274 0.347845,-0.772199 0.759055,-0.776688 0.09412,-10e-4 0.798803,0.307155 1.565961,0.684847 l 1.394834,0.686712 0.595758,-0.290464 c 0.327666,-0.159756 0.595756,-0.309027 0.595756,-0.331714 0,-0.02269 -2.938993,-1.510443 -6.531096,-3.3061252 L 15.978969,5.7116365 15.351505,6.0271199 14.724041,6.342602 15.597966,6.7886429 c 0.93531,0.4773707 1.120139,0.6559124 1.120139,1.0820372 0,0.3293308 -0.364935,0.6878581 -0.700152,0.6878581 -0.130399,0 -0.787722,-0.2825955 -1.597649,-0.6868572 L 13.044203,7.1848243 12.392038,7.5082657 11.73987,7.8317083 12.558379,8.2401318 c 0.45018,0.2246333 0.89334,0.4772409 0.984801,0.5613526 0.236239,0.2172524 0.292902,0.5996332 0.126698,0.8549972 C 13.309195,10.210647 13.13399,10.187434 11.461151,9.3638521 L 10.066316,8.677139 9.4705603,8.967603 C 9.1428936,9.1273594 8.8748029,9.2778134 8.8748029,9.3019475 c 0,0.02414 0.3397978,0.2099772 0.7551056,0.4129858 0.8748595,0.4276417 1.1796745,0.6891947 1.1796745,1.0122447 0,0.428217 -0.320574,0.80332 -0.689079,0.806289 -0.113154,8.9e-4 -0.8316137,-0.311582 -1.5999142,-0.695884 L 7.1260605,10.140042 6.512139,10.44484 c -0.3376561,0.167638 -0.6139203,0.323685 -0.6139203,0.34677 0,0.02308 0.3721001,0.224934 0.8268887,0.448554 0.930255,0.457406 1.1078913,0.6268 1.1078913,1.056492 0,0.234029 -0.047752,0.33958 -0.2311135,0.510866 -0.1413194,0.132013 -0.3122168,0.215893 -0.4398584,0.215893 -0.1148087,0 -0.8405878,-0.313837 -1.6128419,-0.697416 L 4.1450838,11.628583 3.5157184,11.945021 2.8863542,12.26146 9.4338761,15.540511 c 3.6011359,1.803477 6.5642649,3.279213 6.5847289,3.27941 0.02046,2.24e-4 0.314316,-0.141074 0.653003,-0.31394 z"
     id="path855" />
</svg>
